<mxfile host="app.diagrams.net" modified="2024-03-29T17:50:20.699Z" agent="Mozilla/5.0 (Windows NT 10.0; Win64; x64; rv:124.0) Gecko/20100101 Firefox/124.0" version="23.1.6" etag="dOlgQfJzdr0xH7p5YZ9L" type="github">
  <diagram name="Page-1" id="EgaMB4TDy_Q1h44kH5CF">
    <mxGraphModel>
      <root>
        <mxCell id="0" />
        <mxCell id="1" parent="0" />
      </root>
    </mxGraphModel>
  </diagram>
</mxfile>
